:SAMPLES-PER-SECOND 30
:FULLY-SPECIFIED
:DEGREES
625
root  2.2682 34.8012 34.6059 9.87736 32.6245 3.2189
LeftUpLeg  -25.7922 9.49111 -1.3599
LeftLeg  31.5293 5.33189 2.8066
LeftFoot  5.39086 -0.0269917 0.573316
LeftToes  -24.0388 6.91067e-007 1.07128e-007
Spine  4.30808 2.79991 1.08621
Spine1  8.61883 5.60596 2.20296
RightShoulder  0.0370672 6.79846 3.52288
RightArm  -35.8741 -9.5216 68.3441
RightForeArm  18.731 26.5257 5.04495
RightHand  0.849033 -9.73986 -9.56379
LeftShoulder1  -0.00581546 1.30684 -6.93319
LeftArm  -29.4387 23.2987 -69.4864
LeftForeArm  23.4141 -44.4352 -9.96513
LeftHand  0.0534664 6.87537 0.519563
HEad  -6.08473 4.71174 -5.60837
RightUpLeg  -11.4467 -17.6157 1.62553
RightLeg  7.40455 7.18149 0.468048
RightFoot  0.57075 0.00153713 0.0688499
RightToes  -21.9567 -0.0951505 -0.192366
626
root  2.49437 34.7551 35.1827 9.71908 29.8447 2.58928
LeftUpLeg  -26.7598 9.88739 -2.0375
LeftLeg  24.3333 6.24238 2.34389
LeftFoot  6.82606 -0.0478394 0.802126
LeftToes  -24.3362 6.91067e-007 1.07128e-007
Spine  4.34615 2.96165 1.03663
Spine1  8.69343 5.94703 2.10655
RightShoulder  0.037457 6.67079 3.62477
RightArm  -33.6747 -8.85343 68.4998
RightForeArm  19.2921 26.6058 5.06279
RightHand  0.796305 -9.56599 -9.11898
LeftShoulder1  -0.00633976 1.57215 -7.31485
LeftArm  -25.354 24.36 -71.9785
LeftForeArm  23.2764 -38.5231 -8.06991
LeftHand  0.0158508 7.34684 -0.122943
HEad  -6.35164 4.87498 -5.73489
RightUpLeg  -10.5959 -16.4299 1.94898
RightLeg  7.19443 8.67044 0.532567
RightFoot  -0.155536 -0.000546434 -0.0251456
RightToes  -22.8071 -0.0976537 -0.199
627
root  2.72995 34.6793 35.8166 9.44616 27.2981 1.38994
LeftUpLeg  -27.6907 10.2256 -1.84217
LeftLeg  16.9774 6.41944 1.51147
LeftFoot  7.83932 -0.0622443 0.908411
LeftToes  -24.4766 6.91067e-007 1.07128e-007
Spine  4.31975 3.0445 1.12944
Spine1  8.64753 6.11439 2.29524
RightShoulder  0.0376289 6.39819 4.0404
RightArm  -31.2978 -8.2607 68.367
RightForeArm  19.9057 26.1598 4.9644
RightHand  0.750352 -9.31919 -8.81045
LeftShoulder1  -0.0067223 1.90492 -7.45452
LeftArm  -21.9854 26.2829 -74.6516
LeftForeArm  24.3585 -35.2436 -7.15398
LeftHand  -0.123099 7.70681 -2.19541
HEad  -6.22881 5.03894 -5.69656
RightUpLeg  -9.73445 -15.7157 2.80246
RightLeg  6.9961 10.448 0.604622
RightFoot  -0.977363 -0.00475545 -0.18012
RightToes  -23.4267 -0.101373 -0.203786
628
root  2.97609 34.5817 36.5095 9.13025 24.9038 0.0262689
LeftUpLeg  -28.5708 10.9845 -1.2974
LeftLeg  10.2316 5.38257 0.615898
LeftFoot  8.27026 -0.0567073 0.784342
LeftToes  -24.8982 6.91067e-007 1.07128e-007
Spine  4.26388 3.09893 1.28392
Spine1  8.54886 6.21147 2.61817
RightShoulder  0.0372415 6.2832 4.39316
RightArm  -29.999 -8.17531 68.3542
RightForeArm  20.8973 25.5881 4.83938
RightHand  0.715995 -9.25454 -8.45297
LeftShoulder1  -0.00695645 2.02116 -7.55665
LeftArm  -19.4315 28.8632 -77.0606
LeftForeArm  25.2023 -34.0193 -6.83161
LeftHand  -0.251848 7.72892 -4.09331
HEad  -5.82951 5.04803 -5.69946
RightUpLeg  -8.83204 -15.2609 3.77368
RightLeg  7.10656 12.3159 0.735034
RightFoot  -1.93091 -0.0134301 -0.419539
RightToes  -24.5339 -0.108148 -0.212239
629
root  3.22384 34.4591 37.2588 8.74288 22.632 -1.67492
LeftUpLeg  -29.5027 12.6519 -0.581249
LeftLeg  4.53143 4.00544 0.0588333
LeftFoot  8.88106 -0.0455379 0.620341
LeftToes  -27.4254 6.91067e-007 1.07128e-007
Spine  4.17181 3.1886 1.49729
Spine1  8.38555 6.36728 3.07055
RightShoulder  0.0361956 6.21998 4.61162
RightArm  -29.9477 -8.62884 68.6497
RightForeArm  21.7952 24.7952 4.66794
RightHand  0.687426 -9.05266 -8.29113
LeftShoulder1  -0.0070356 2.25673 -7.63369
LeftArm  -17.2663 31.5199 -79.003
LeftForeArm  25.5463 -34.075 -6.84597
LeftHand  -0.292222 7.50434 -4.81913
HEad  -5.04397 5.02084 -5.69419
RightUpLeg  -7.82124 -14.2527 5.01395
RightLeg  7.28196 13.5076 0.846204
RightFoot  -2.90846 -0.0272251 -0.695012
RightToes  -25.5025 -0.114209 -0.219524
